<svg width="186" height="186" viewBox="0 0 186 186" fill="none" xmlns="http://www.w3.org/2000/svg">
<path d="M181.85 0H179.81C180.898 0 181.782 0.882482 181.782 1.96861V180.23C181.782 181.316 180.898 182.199 179.81 182.199H14.7574C13.6692 182.199 12.7852 181.316 12.7852 180.23V181.859C12.7852 184.167 14.6893 186 16.9336 186H181.85C184.162 186 185.998 184.167 185.998 181.859V4.14088C186.066 1.83285 184.162 0 181.85 0Z" fill="#EFCD29"/>
<path d="M87.0484 106.577C87.1164 106.577 87.1164 106.645 87.1164 106.645L81.1999 131.287H105.478L99.5617 106.645C99.5617 106.577 99.5617 106.577 99.6297 106.577C105.138 104.133 109.015 98.6347 109.015 92.2537C109.015 80.9172 96.9774 72.4318 84.9402 78.8129C82.832 79.9669 80.9958 81.7318 79.9077 83.8362C74.7392 93.4756 79.2277 103.183 87.0484 106.577Z" fill="#FFDD00"/>
<path d="M87.0484 106.577C87.1164 106.577 87.1164 106.645 87.1164 106.645L81.1999 131.287H105.478L99.5617 106.645C99.5617 106.577 99.5617 106.577 99.6297 106.577C105.138 104.133 109.015 98.6347 109.015 92.2537C109.015 80.9172 96.9774 72.4318 84.9402 78.8129C82.832 79.9669 80.9958 81.7318 79.9077 83.8362C74.7392 93.4756 79.2277 103.183 87.0484 106.577Z" fill="#FFDD00"/>
<path d="M14.7574 182.199H179.81C180.898 182.199 181.782 181.316 181.782 180.23V1.96861C181.782 0.882482 180.898 0 179.81 0H17.0016H14.8254C13.7372 0 12.8532 0.882482 12.8532 1.96861V4.14088V46.3642H95.2092L125.336 82.4102L127.444 84.9898V148.257H12.7852V160.612V180.23C12.7852 181.316 13.6692 182.199 14.7574 182.199Z" fill="#FFDD00"/>
<path d="M14.7574 182.199H179.81C180.898 182.199 181.782 181.316 181.782 180.23V1.96861C181.782 0.882482 180.898 0 179.81 0H17.0016H14.8254C13.7372 0 12.8532 0.882482 12.8532 1.96861V4.14088V46.3642H95.2092L125.336 82.4102L127.444 84.9898V148.257H12.7852V160.612V180.23C12.7852 181.316 13.6692 182.199 14.7574 182.199Z" fill="#FFDD00"/>
<path d="M125.336 145.677V82.4102L95.2093 46.3643H12.7853H0V145.677H125.336ZM79.9078 83.9037C81.0639 81.7993 82.8321 80.0343 84.9403 78.8803C96.9095 72.4993 109.015 80.9847 109.015 92.3212C109.015 98.7022 105.138 104.201 99.6298 106.645C99.5618 106.645 99.5618 106.712 99.5618 106.712L105.478 131.354H81.2L87.1165 106.712C87.1165 106.645 87.1165 106.645 87.0485 106.645C79.2278 103.182 74.7393 93.4752 79.9078 83.9037Z" fill="#404548"/>
<path d="M127.444 148.257V84.9902L125.336 82.4785V145.678H0L12.7853 160.68V148.257H127.444Z" fill="#333638"/>
</svg>
