<svg width="24" height="25" viewBox="0 0 24 25" fill="none" xmlns="http://www.w3.org/2000/svg">
<path d="M12.0013 24.0128V19.3592C16.927 19.3592 20.7505 14.4743 18.8591 9.2901C18.1652 7.37152 16.6276 5.83395 14.709 5.14C9.52482 3.26224 4.63995 7.07217 4.63995 11.9979H0C0 4.14669 7.59264 -1.97641 15.8248 0.595295C19.417 1.72467 22.2881 4.58211 23.4038 8.17433C25.9755 16.4201 19.8661 24.0128 12.0013 24.0128Z" fill="white"/>
<path d="M12.0149 19.3729H7.38855V14.7466H12.0149V19.3729Z" fill="white"/>
<path d="M7.38861 22.9376H3.82361V19.3726H7.38861V22.9376Z" fill="white"/>
<path d="M3.82354 19.373H0.843628V16.3931H3.82354V19.373Z" fill="white"/>
</svg>
