<svg width="24" height="23" viewBox="0 0 24 23" fill="none" xmlns="http://www.w3.org/2000/svg">
<g clip-path="url(#clip0_51804_9018)">
<path d="M22.5704 0H19.3252C18.5948 0 18.2817 0.302609 18.2817 1.04348V9.25565H5.35304V1.04348C5.35304 0.313043 5.05044 0 4.30957 0H1.04348C0.302609 0 0 0.302609 0 1.04348V22.1739C0 22.9148 0.302609 23.2174 1.04348 23.2174H4.30957C5.04 23.2174 5.35304 22.9252 5.35304 22.1739V13.8261H18.2922V22.1739C18.2922 22.9043 18.5948 23.2174 19.3357 23.2174H22.5809C23.3113 23.2174 23.6243 22.9148 23.6243 22.1739V1.04348C23.6035 0.333913 23.3009 0 22.5704 0Z" fill="white"/>
</g>
<defs>
<clipPath id="clip0_51804_9018">
<rect width="24" height="22.9565" fill="white"/>
</clipPath>
</defs>
</svg>
