<svg width="61" height="58" viewBox="0 0 61 58" fill="none" xmlns="http://www.w3.org/2000/svg">
<path d="M1.6 0C6.6 1.1 11.4 2.9 15.7 5.3C10.6 7.9 6.3 11.8 3.2 16.6C1.2 13.9 0.0999985 10.5 0.0999985 6.9C0.0999985 4.4 0.599998 2.1 1.6 0Z" fill="white"/>
<path d="M57.8 16.6C54.7 11.8 50.4 7.9 45.3 5.3C49.7 2.9 54.4 1.1 59.4 0C60.4 2.1 60.9 4.4 60.9 6.9C60.9 10.5 59.7 13.8 57.8 16.6Z" fill="white"/>
<path fill-rule="evenodd" clip-rule="evenodd" d="M55.3 57.6C58.4 57.6 60.9 55.1 60.9 52L60.8 34.2C60.8 17 46.6 3.2 29.3 3.8C12.8 4.4 0 18.4 0 34.9V52C0 55.1 2.5 57.6 5.6 57.6C8.7 57.6 11.2 55.1 11.2 52V47.5H49.7V52C49.7 55.1 52.2 57.6 55.3 57.6ZM42.8 28.4C43 28.1 43.4 28 43.8 28.2C44.2 28.4 44.3 28.9 44 29.1C43.2 30.4 42 31.4 40.5 31.8C39.6 33.6 37.6 34.9 35.4 34.9H34.7C33.9 34.9 33.3 34.3 33.3 33.5C33.3 32.8 33.9 32.1 34.7 32.1C35.4 32.1 36 31.9 36.6 31.6C35.7 31.2 35 30.6 34.4 29.9C33.9 29.3 33.6 28.5 33.6 27.7C33.6 25.8 35.2 24.2 37.1 24.2C38.3 24.2 39.3 24.7 39.9 25.6C40.7 26.6 41.2 27.9 41.2 29.3V29.8C41.9 29.4 42.4 29 42.8 28.4ZM38.1 30.1C37.2 29.8 36.4 29.3 35.9 28.5C35.7 28.3 35.6 28 35.6 27.7C35.6 26.9 36.2 26.3 37 26.3C37.7 26.3 38.4 26.9 38.4 27.6C38.4 27.6899 38.4202 27.7798 38.4425 27.8788C38.4697 28 38.5 28.1348 38.5 28.3C38.6 28.9 38.4 29.6 38.1 30.1Z" fill="white"/>
</svg>
